<?xml version="1.0" encoding="UTF-8" standalone="no"?>
<svg
   width="32"
   height="32"
   version="1.1"
   id="svg1"
   xmlns="http://www.w3.org/2000/svg"
   xmlns:svg="http://www.w3.org/2000/svg">
  <defs
     id="defs1" />
  <ellipse
     style="fill:#ffffff;stroke:#000000;stroke-width:0"
     id="path2"
     cx="16"
     cy="16"
     rx="15.672768"
     ry="14.57258" />
  <path
     d="M 10.62754,26.162574 C 8.5641586,25.955332 7.1213685,25.375994 5.7754401,24.20319 3.9542132,22.63003 2.6386949,19.855805 2.3875301,17.078048 A 10.474589,10.950888 0 0 1 2.4438451,14.943213 8.6725091,9.0668639 0 0 1 4.9836513,9.8057164 C 7.1652942,7.5931661 10.684981,6.3285152 14.116817,6.5263377 c 1.43378,0.082426 2.331441,0.2390355 3.572623,0.635858 0.457278,0.1413017 1.091385,0.3897574 1.43378,0.5652071 0.101367,0.050633 0.184713,0.087136 0.189218,0.077716 a 7.8840992,8.2426036 0 0 0 0.08447,-0.5381243 c 0.162187,-1.1539645 0.304101,-1.4483432 0.690421,-1.4448107 0.470794,0.00942 1.606104,0.8419231 2.52967,1.8628284 l 0.373932,0.4050651 0.725337,0.00471 c 0.994523,0.00942 1.790817,0.1566095 1.980035,0.3720947 0.146419,0.1566094 0.114883,0.322639 -0.189218,0.9714497 -0.27707,0.6017103 -0.596939,1.5496093 -0.867251,2.5575623 -0.33789,1.283491 -0.430247,1.590822 -0.566529,1.862828 -0.154303,0.307331 -0.357037,0.546367 -0.55414,0.642923 -0.180208,0.09302 -0.519224,0.05534 -0.84923,-0.08714 -0.233144,-0.101266 -0.348027,-0.174272 -0.699432,-0.43568 -0.114883,-0.08831 -0.167819,-0.01884 -0.114883,0.146011 0.09236,0.284959 0.572161,0.625261 1.130805,0.800711 0.369427,0.115396 0.558645,0.224905 0.729843,0.413307 0.172324,0.197823 0.220754,0.387403 0.137408,0.525172 -0.03604,0.05063 -0.08898,0.09185 -0.123893,0.09185 -0.03041,0 -0.154303,-0.101266 -0.268059,-0.221373 -0.22526,-0.239035 -0.444889,-0.367384 -0.616086,-0.367384 -0.06195,0 -0.24666,0.0683 -0.413352,0.161319 -0.484309,0.251988 -0.734348,0.321462 -1.245688,0.345012 -0.373931,0.01295 -0.484309,0.0035 -0.738853,-0.06005 -0.57216,-0.153077 -0.990017,-0.447456 -1.271592,-0.906687 l -0.131777,-0.215485 v 0.239036 c 0,0.538124 0.193723,1.278781 0.457278,1.747432 0.167818,0.289668 0.594686,0.753609 0.880766,0.952609 0.131777,0.09185 0.514719,0.307331 0.848104,0.478071 0.334511,0.17074 0.84923,0.441568 1.139815,0.598178 0.334511,0.183692 0.602571,0.303798 0.734348,0.330881 0.537245,0.115397 1.174731,-0.0094 1.338044,-0.257876 a 0.45051995,0.47100592 0 0 0 0.05632,-0.234325 c 0,-0.133059 -0.03041,-0.197822 -0.210618,-0.450988 -0.245533,-0.335592 -0.298469,-0.509864 -0.189218,-0.634681 0.07096,-0.08243 0.09236,-0.08243 0.752368,0 0.128398,0.01413 0.339016,0.01413 0.470793,0 0.290586,-0.0365 0.409974,0.01413 0.409974,0.18016 0,0.150722 -0.132904,0.326172 -0.444889,0.574627 -0.326627,0.261409 -0.475298,0.509864 -0.405468,0.666474 0.08447,0.197822 0.396458,0.147189 0.79742,-0.133059 0.166693,-0.120107 0.585676,-0.538125 1.283982,-1.283492 0.572161,-0.612307 1.042954,-1.122171 1.047459,-1.141011 0.009,-0.01295 -0.05632,-0.01295 -0.140787,0 -0.387447,0.07889 -1.214152,0.0094 -1.460811,-0.123639 -0.131777,-0.07418 -0.198229,-0.183693 -0.166693,-0.280249 0.04393,-0.138947 0.346901,-0.373272 0.773768,-0.588757 0.242155,-0.120107 0.49332,-0.270829 0.56315,-0.33677 0.146419,-0.137769 0.24666,-0.312041 0.193724,-0.345011 -0.04393,-0.03179 -0.822199,0.211952 -1.108279,0.349721 -0.409973,0.188403 -0.687043,0.538125 -0.862746,1.085669 -0.07434,0.235503 -0.175703,0.262586 -0.259049,0.08243 -0.110377,-0.247278 -0.146419,-0.77245 -0.146419,-2.17958 0.0056,-1.394177 0.02253,-1.650876 0.180208,-2.672958 0.137409,-0.883136 0.382942,-1.9452547 0.520351,-2.2620062 0.104746,-0.240213 0.189218,-0.2908461 0.408847,-0.2590532 0.154303,0.01884 0.175702,0.015308 0.320995,-0.1177515 0.608202,-0.553432 1.641019,-1.2422781 2.098297,-1.4035976 0.603696,-0.2119527 0.800799,0.031793 0.678032,0.841923 -0.08785,0.555787 -0.506835,2.2631835 -0.726463,2.9567395 l -0.127272,0.400355 0.146419,0.612308 c 0.206113,0.896089 0.232018,1.098621 0.232018,1.793355 0,0.704154 -0.03492,0.952609 -0.219629,1.504864 a 3.8294196,4.0035503 0 0 1 -0.523729,1.095089 c -0.251165,0.385047 -0.251165,0.389757 -0.123893,0.372094 0.146419,-0.02355 0.484309,0.08243 0.682537,0.215485 0.311986,0.207243 0.56315,0.648811 0.629602,1.109219 0.215123,1.421261 -1.601598,3.219326 -3.739315,3.702107 -0.550761,0.124816 -0.885272,0.156609 -1.91471,0.188402 -1.253572,0.04121 -1.662419,0.105977 -2.511649,0.400355 -0.765884,0.270829 -1.347055,0.565207 -2.674962,1.357675 -1.500232,0.896089 -2.47786,1.389467 -3.38791,1.710929 -0.871756,0.307331 -1.883174,0.533414 -2.780835,0.61584 a 22.525998,23.550296 0 0 1 -1.936109,0.01413 m 1.092511,-3.141609 c 1.588082,-0.193113 2.854044,-0.617018 5.194495,-1.74861 1.227667,-0.59229 2.20079,-0.979692 3.11985,-1.23168 0.646497,-0.18016 0.805305,-0.259053 0.805305,-0.400355 0,-0.235503 -0.339016,-0.644101 -1.029438,-1.246988 -0.976502,-0.851344 -1.280603,-1.513107 -1.439412,-3.15103 -0.127271,-1.347077 -0.241028,-1.954675 -0.505708,-2.695331 -0.835715,-2.32206 -2.534175,-3.7068168 -5.112275,-4.1625151 -0.53274,-0.091846 -1.980036,-0.091846 -2.494755,0 C 8.1778378,8.7659708 6.4444623,9.8327992 5.1368281,11.535485 4.3495445,12.565811 3.8618566,13.600846 3.6365966,14.718308 a 6.9830593,7.3005917 0 0 0 -0.065325,2.19842 c 0.1407874,1.053876 0.4662881,2.014728 0.9945228,2.920237 1.0902582,1.876958 2.8720647,2.976757 5.217021,3.220503 0.3919516,0.0365 1.4563056,0.01884 1.9372356,-0.0365 M 8.2341528,19.759249 C 7.0560431,19.543764 6.1493717,18.86316 5.6605575,17.813994 5.4319187,17.317083 5.3485725,16.944988 5.3226676,16.305598 5.2821208,15.137503 5.6076214,14.197846 6.3295797,13.403024 q 0.6194649,-0.674716 1.3628228,-0.846633 c 0.3964576,-0.09185 0.630728,-0.105977 0.920187,-0.06476 1.1094054,0.17545 2.0070665,0.847811 2.6490575,1.987645 0.307479,0.547545 0.567655,1.361208 0.637485,2.019438 0.04843,0.432148 0.02253,1.153965 -0.05631,1.481314 a 2.0611288,2.1548521 0 0 1 -0.885271,1.305864 c -0.254544,0.178982 -0.518098,0.289668 -0.9584817,0.409775 -0.4358777,0.118929 -1.2986234,0.151899 -1.7649115,0.06359 m 6.9515172,-0.234334 c -0.651001,-0.137769 -1.292992,-0.690023 -1.644397,-1.41655 -0.149798,-0.317929 -0.22526,-0.561675 -0.290586,-0.989112 -0.149798,-0.974983 0.153177,-1.853409 0.857114,-2.497509 0.594687,-0.538125 1.698461,-0.818373 2.521786,-0.634681 0.967491,0.211953 1.438285,0.956142 1.438285,2.263184 0,1.375337 -0.608202,2.552852 -1.579073,3.067426 a 2.0949178,2.1901775 0 0 1 -1.303129,0.207242 m 4.73046,-8.609988 c 0.180208,-0.09302 0.457278,-0.142479 1.015922,-0.17074 l 0.457278,-0.02708 -0.140787,-0.134237 c -0.259049,-0.239036 -0.320996,-0.367385 -0.219629,-0.473361 0.04843,-0.05063 0.140788,-0.06476 0.540624,-0.06476 0.673527,-0.0047 0.783905,-0.073006 0.738853,-0.468651 -0.0259,-0.2260828 -0.135156,-0.4509882 -0.56315,-1.118639 -0.681412,-1.0797811 -1.227667,-1.6685385 -1.539652,-1.6685385 -0.228639,0 -0.399836,1.2093077 -0.448267,3.2193255 -0.01352,0.538124 -0.009,0.974982 0.0045,0.974982 a 0.67577993,0.70650888 0 0 0 0.153177,-0.0683"
     style="fill:#000000;fill-opacity:1;fill-rule:nonzero;stroke:none;stroke-width:1.15162"
     id="path1" />
</svg>
